<?xml version="1.0" encoding="utf-8"?>
<!-- Generator: Adobe Illustrator 25.2.1, SVG Export Plug-In . SVG Version: 6.00 Build 0)  -->
<svg version="1.1" id="Слой_1" xmlns="http://www.w3.org/2000/svg" xmlns:xlink="http://www.w3.org/1999/xlink" x="0px" y="0px"
	 viewBox="0 0 50 50" style="enable-background:new 0 0 50 50;" xml:space="preserve">
<style type="text/css">
	.st0{fill:#679878;}
</style>
<path class="st0" d="M36.5,10.5c-0.3,0-0.5,0-0.5,0c-2.8,0-5.5,1.5-7.1,3.8L26,11.2V1.3c0-0.6-0.4-1-1-1s-1,0.5-1,1v9.8l-2.8,3.2
	c-1.7-2.3-4.3-3.8-7.1-3.8c0,0,0,0,0,0c0,0-0.2,0-0.6,0C11.4,10.5,1,11.2,1,24.9v23.5c0,0.6,0.4,1,1,1h12c5,0,9-4.1,9-9.2V19.7
	c0-1.3-0.3-2.5-0.8-3.6l2.8-3.1l2.8,3.1c-0.5,1.1-0.8,2.3-0.8,3.6v5.3v0v15.1c0,5.1,4,9.2,9,9.2h12c0.6,0,1-0.5,1-1V24.9
	C49,11.2,38.6,10.5,36.5,10.5z M21,19.7v5l-7.7,8.6c-0.4,0.4-0.3,1.1,0.1,1.4c0.2,0.2,0.4,0.3,0.7,0.3c0.3,0,0.5-0.1,0.7-0.3l6.3-7
	v12.4c0,3.9-3.1,7.2-7,7.2H3V24.9c0-11.4,8-12.3,10.5-12.3c0.3,0,0.4,0,0.5,0c2.1,0,4.4,1.3,5.8,3.3l-6.5,7.3
	c-0.4,0.4-0.3,1.1,0.1,1.4c0.4,0.4,1,0.4,1.4-0.1l6-6.7C20.9,18.4,21,19.1,21,19.7z M47,47.4H36c-3.9,0-7-3.2-7-7.2V27.8l6.3,7
	c0.2,0.2,0.5,0.3,0.7,0.3c0.2,0,0.5-0.1,0.7-0.3c0.4-0.4,0.4-1,0.1-1.4L29,24.7v-5c0-0.7,0.1-1.3,0.3-1.9l6,6.7
	c0.2,0.2,0.5,0.3,0.7,0.3c0.2,0,0.5-0.1,0.7-0.3c0.4-0.4,0.4-1,0.1-1.4l-6.5-7.3c1.4-2,3.7-3.3,5.9-3.3c0,0,0.2,0,0.4,0
	C39,12.6,47,13.4,47,24.9V47.4z"/>
<path class="st0" d="M11.3,25.1c-0.2,0.2-0.3,0.5-0.3,0.7c0,0.3,0.1,0.5,0.3,0.7c0.2,0.2,0.4,0.3,0.7,0.3s0.5-0.1,0.7-0.3
	c0.2-0.2,0.3-0.5,0.3-0.7c0-0.3-0.1-0.5-0.3-0.7C12.3,24.8,11.7,24.8,11.3,25.1z"/>
<path class="st0" d="M11.3,35.4c-0.2,0.2-0.3,0.5-0.3,0.7c0,0.3,0.1,0.5,0.3,0.7c0.2,0.2,0.4,0.3,0.7,0.3s0.5-0.1,0.7-0.3
	c0.2-0.2,0.3-0.5,0.3-0.7c0-0.3-0.1-0.5-0.3-0.7C12.3,35,11.7,35,11.3,35.4z"/>
<path class="st0" d="M37.3,25.1c-0.2,0.2-0.3,0.5-0.3,0.7c0,0.3,0.1,0.5,0.3,0.7c0.2,0.2,0.4,0.3,0.7,0.3c0.3,0,0.5-0.1,0.7-0.3
	c0.2-0.2,0.3-0.5,0.3-0.7c0-0.3-0.1-0.5-0.3-0.7C38.3,24.8,37.7,24.8,37.3,25.1z"/>
<path class="st0" d="M37.3,35.4c-0.2,0.2-0.3,0.5-0.3,0.7c0,0.3,0.1,0.5,0.3,0.7c0.2,0.2,0.4,0.3,0.7,0.3c0.3,0,0.5-0.1,0.7-0.3
	c0.2-0.2,0.3-0.5,0.3-0.7c0-0.3-0.1-0.5-0.3-0.7C38.3,35,37.7,35,37.3,35.4z"/>
</svg>
