<?xml version="1.0" encoding="utf-8"?>
<!-- Generator: Adobe Illustrator 25.2.1, SVG Export Plug-In . SVG Version: 6.00 Build 0)  -->
<svg version="1.1" id="Слой_1" xmlns="http://www.w3.org/2000/svg" xmlns:xlink="http://www.w3.org/1999/xlink" x="0px" y="0px"
	 viewBox="0 0 50 50" style="enable-background:new 0 0 50 50;" xml:space="preserve">
<style type="text/css">
	.st0{fill:#679878;}
</style>
<path class="st0" d="M42.9,23.7c0-0.5-0.5-1-1-1c-0.6,0-1,0.4-1,1c0,3.2-2.8,5.9-6.2,5.9c-0.6,0-1,0.4-1,1c0,0.5,0.5,1,1,1
	C39.1,31.5,42.9,28,42.9,23.7z"/>
<path class="st0" d="M21.2,33.2c-0.5,0.8-5.4,7.7-5.4,10.6c0,3.3,2.9,6.2,6.2,6.2c3.4,0,6.2-2.8,6.2-6.2c0-2.9-4.8-9.8-5.4-10.6
	c-0.2-0.3-0.5-0.4-0.9-0.4C21.8,32.8,21.4,33,21.2,33.2z M26.3,43.8c0,2.2-1.9,4.2-4.2,4.2s-4.2-2-4.2-4.2c0-1.5,2.3-5.4,4.2-8.3
	C24,38.4,26.3,42.3,26.3,43.8z"/>
<path class="st0" d="M10.7,16.2c-0.3,0-0.7,0.2-0.9,0.4c-0.7,0.9-6.4,8.8-6.4,12.3c0,3.8,3.3,6.8,7.3,6.8c4,0,7.3-3.1,7.3-6.8
	c0-3.4-5.8-11.4-6.4-12.3C11.3,16.4,11,16.2,10.7,16.2z M10.7,33.8c-2.9,0-5.2-2.2-5.2-4.9c0-1.9,2.9-6.7,5.2-10
	c2.3,3.3,5.2,8.1,5.2,10C15.9,31.6,13.5,33.8,10.7,33.8z"/>
<path class="st0" d="M24.2,22.8c0,0.5-0.5,1-1,1s-1-0.4-1-1c0-0.5,0.5-1,1-1S24.2,22.2,24.2,22.8z"/>
<path class="st0" d="M35.4,0.5C35.2,0.2,34.9,0,34.6,0s-0.7,0.2-0.9,0.5c-0.3,0.4-7.4,10.9-10.3,18.2c-0.2,0.5,0.1,1.1,0.6,1.3
	c0.5,0.2,1.1-0.1,1.3-0.6c2.3-5.7,7.2-13.5,9.2-16.5c3.5,5.4,10.4,16.7,10.4,20.9c0,5.4-4.7,9.8-10.4,9.8c-4.6,0-8.7-2.9-10-7.1
	c-0.2-0.5-0.7-0.8-1.3-0.7c-0.6,0.1-0.9,0.7-0.7,1.2c1.5,5,6.4,8.5,12,8.5c6.9,0,12.5-5.3,12.5-11.7C47,18.3,38.4,4.8,35.4,0.5z"/>
</svg>
