<?xml version="1.0" encoding="utf-8"?>
<!-- Generator: Adobe Illustrator 25.2.1, SVG Export Plug-In . SVG Version: 6.00 Build 0)  -->
<svg version="1.1" id="Слой_1" xmlns="http://www.w3.org/2000/svg" xmlns:xlink="http://www.w3.org/1999/xlink" x="0px" y="0px"
	 viewBox="0 0 50 50" style="enable-background:new 0 0 50 50;" xml:space="preserve">
<style type="text/css">
	.st0{fill:#679878;}
</style>
<path class="st0" d="M48.6,47.5h-6.9c-0.3-1.1-1.2-2-2.3-2.3l-1.7-0.4l2.1-10.2c0.4-2-0.7-4-2.6-4.6c-4.7-1.6-3.1-0.9-7.4-1.9
	c1.5-0.9,3.6-2.2,4.2-2.9c0.8-0.8,3.1-3.1,3.1-5.3c0-0.6-0.2-1.3-0.6-2L48.6,5.7c0.5-0.5,0.8-1.2,0.8-2c0-2.5-3-3.7-4.7-2
	c-0.3,0.3-0.3,0.8,0,1.1c0.3,0.3,0.8,0.3,1.1,0c0.8-0.8,2.1-0.2,2.1,0.9c0,0.3-0.1,0.6-0.4,0.9L33.4,18.7c-0.5,0.5-0.1,1.3,0.5,1.3
	c0.4,0,0.5-0.2,1.4-1.1c0.1,0.3,0.2,0.6,0.2,0.9c0,1-0.9,2.5-2.6,4.2c-0.6,0.6-3.4,2.4-5.3,3.5L25,27.2c-0.4-0.1-0.8,0.2-0.9,0.7
	c-0.1,0.4,0.2,0.8,0.7,0.9l2.8,0.4c6.5,1.6,3.9,0.5,9.1,2.3c1.2,0.4,1.9,1.6,1.6,2.9l-1,4.7h-2.5l0.4-3.5c0-0.4-0.3-0.8-0.7-0.8
	c-9.1-0.8-8.3,0.2-11.4-0.9c-0.2-0.1-0.5-0.2-0.7-0.3c-1.9-1-2.3-3.8-1.7-5.3c0.7-0.5,1.4-1.1,2.1-1.8c0.3-0.3,0.3-0.8,0-1.1
	c-0.3-0.3-0.8-0.3-1.1,0C21,25.8,20,26.6,20,26.6c-0.2,0-0.2,0.1-1,0.6c-1.9,1.2-1.5,1-11.4,9.3l-6,4c-1,0.7-1.5,2-1,3.2
	c1.2,3.2,1.2,3.3,1.6,3.8h-1c-0.4,0-0.8,0.3-0.8,0.8c0,0.4,0.3,0.8,0.8,0.8h47.4c0.4,0,0.8-0.3,0.8-0.8C49.4,47.8,49,47.5,48.6,47.5
	z M18.9,29.1c-0.1,1.9,0.6,4.1,2.2,5.3c-2.8,1.3-6.7,2.8-11.3,5.3L9,37.4C16.5,31,17.8,29.9,18.9,29.1z M2.5,41.8l5.2-3.5l0.8,2.1
	l-3.5,2.3c-0.3,0.2-0.4,0.5-0.3,0.8l0.7,4.1c-0.9,0.1-1.8-0.5-2.1-1.3l-1.2-3C1.8,42.6,2,42.1,2.5,41.8z M6.2,43.6
	c3.5-2.2,4-2.8,12.7-6.6c1.6-0.7,2.9-1.3,4.1-1.9c3.1,1,2.9,0.2,10.7,0.8c-1.1,9.8-0.8,7.9-1.3,9.7c-0.2,0.6-0.1,1.2,0.2,1.8H6.8
	L6.2,43.6z M34.9,47.5c-0.7,0-1.3-0.7-1.1-1.4c0.5-2,0.3-0.7,0.8-5.6H37l-1,4.7c-0.1,0.4,0.2,0.8,0.6,0.9l2.4,0.6
	c0.5,0.1,0.9,0.4,1.1,0.8H34.9z"/>
<path class="st0" d="M27,8.7c0.1,1.5,0.7,2.9,1.8,4c-0.7,2.8-1.7,5.4-3.2,7.7c-0.2,0.4-0.1,0.8,0.3,1.1c0.4,0.2,0.8,0.1,1.1-0.3
	c1.4-2.2,2.4-4.7,3.1-7.4c0.4,0.2,0.8,0.5,1.2,0.6l0.4,0.3l-1.1,1.1c-0.5,0.5-0.1,1.3,0.5,1.3c0.2,0,0.4-0.1,0.5-0.2
	c7.9-7.9-6.2,6.2,9.8-9.8c1.4-1.4,2.2-3.4,2.2-5.4c0-0.4-0.3-0.8-0.8-0.8c-0.4,0-0.8,0.3-0.8,0.8c0,1.6-0.6,3.2-1.8,4.3L37,9.4
	c0-1.8,0.1-2.8-0.6-4.2c-1.3-2.3-4.3-3.2-6.7-2c-1.2-2-4.1-1.7-4.9,0.5l-0.5,1.5C23.7,7,25.1,8.8,27,8.7z M34.8,5.6
	c-0.7,1-1.9,1.6-3.1,1.6c-1.1,0-1,1.5-0.1,1.5c1.4,0,2.8-0.6,3.8-1.6c0,0.3,0,0.1,0,3.7l-2.4,2.4c-1-0.1-1.9-0.5-2.6-1.1l0.6-1.6
	c0.2-0.4-0.1-0.9-0.5-1c-0.4-0.1-0.7,0.1-0.9,0.5L29.3,11c-0.5-0.8-0.8-1.7-0.8-2.7c0-0.1,0-0.1,0.1-0.1c0.4-0.3,0.7-0.8,0.8-1.2
	c0.5-1.5,0.6-1.7,0.7-2.1C31.6,3.8,33.7,4.2,34.8,5.6z M25.7,5.7l0.5-1.5c0.2-0.5,0.6-0.8,1.1-0.8c0.8,0,1.4,0.8,1.1,1.5
	c-0.5,1.4-0.5,1.8-1,2.1C26.5,7.6,25.4,6.7,25.7,5.7z"/>
<path class="st0" d="M23.9,24c0.3,0.3,0.8,0.2,1.1-0.1c0,0,0.1-0.1,0.1-0.1c0.3-0.3,0.2-0.8-0.1-1.1c-0.3-0.3-0.8-0.2-1.1,0.1
	c0,0-0.1,0.1-0.1,0.1C23.6,23.3,23.6,23.7,23.9,24z"/>
</svg>
