<svg id="Слой_1" data-name="Слой 1" xmlns="http://www.w3.org/2000/svg" viewBox="0 0 50 50"><defs><style>.cls-1{fill:#679878;}</style></defs><path class="cls-1" d="M40.84,43.32V48a.8.8,0,0,1-.8.8.79.79,0,0,1-.79-.8v-4.7a6.64,6.64,0,0,0-6.64-6.64,4.91,4.91,0,0,1-4.21-2.36.8.8,0,0,1,.27-1.1.78.78,0,0,1,1.09.27,3.32,3.32,0,0,0,2.85,1.6A8.22,8.22,0,0,1,40.84,43.32Zm2.34-14.64A3.24,3.24,0,0,0,43,24.82l-1.53-1.88a1.64,1.64,0,0,1-.3-1.51l.9-3a3.23,3.23,0,0,0-1.31-3.63L39,13.6a1.65,1.65,0,0,1-.69-1.81,3.29,3.29,0,0,0-3.06-4.14l-.8,0a2.89,2.89,0,0,1-2.74-2.3l-.05-.27a3.31,3.31,0,0,0-4.87-2.19,1.74,1.74,0,0,1-2.07-.27L24,1.94a3.35,3.35,0,0,0-4.65,0L17.93,3.37a1.75,1.75,0,0,1-.92.46l-3,.5a4.29,4.29,0,0,0-3.48,5.36l.59,2.12a1.62,1.62,0,0,1-.67,1.78L8.61,14.82a3.22,3.22,0,0,0-1.3,3.6l.92,3a1.62,1.62,0,0,1-.3,1.48L6.38,24.84a3.18,3.18,0,0,0-.17,3.82L7.7,30.87a1.62,1.62,0,0,1-.08,1.92l-.22.27a3.68,3.68,0,0,0,.29,5,.82.82,0,0,0,.56.23.8.8,0,0,0,.56-1.37,2.08,2.08,0,0,1-.17-2.81l.22-.28A3.2,3.2,0,0,0,9,30L7.53,27.77a1.61,1.61,0,0,1,.09-1.93l1.55-1.9a3.21,3.21,0,0,0,.58-3l-.91-3a1.62,1.62,0,0,1,.66-1.82l1.83-1.23a3.22,3.22,0,0,0,1.32-3.53l-.59-2.12a2.69,2.69,0,0,1,2.2-3.36l3-.5a3.27,3.27,0,0,0,1.78-.9L20.5,3.08a1.75,1.75,0,0,1,2.42,0l.67.65a3.34,3.34,0,0,0,4,.52,1.71,1.71,0,0,1,2.52,1.11l.06.28a4.48,4.48,0,0,0,4.23,3.57l.8,0a1.69,1.69,0,0,1,1.6,2.11,3.22,3.22,0,0,0,1.33,3.56l1.79,1.21A1.65,1.65,0,0,1,40.55,18l-.9,3a3.24,3.24,0,0,0,.59,3l1.53,1.88a1.64,1.64,0,0,1,.09,2L40.39,30a3.23,3.23,0,0,0,.17,3.85,2.48,2.48,0,0,1,.62,1.13.8.8,0,0,0,1.56-.34,4,4,0,0,0-.94-1.79,1.65,1.65,0,0,1-.09-2ZM35,39.24a17.87,17.87,0,0,1-16-3.12,4.86,4.86,0,0,0,2.62-4A10.67,10.67,0,0,0,35.36,22V17.86a8,8,0,0,0-8-8H24.66a6.67,6.67,0,0,0-6.17,3.85c-.6,1.4-.35,2.34-.55,3.45-.34,1.83-1.83,3.56-4.42,5.15a.8.8,0,0,0,.84,1.36c3-1.84,4.72-3.93,5.15-6.22.23-1.27,0-2,.44-3.12a5.09,5.09,0,0,1,4.71-2.88h2.73a6.38,6.38,0,0,1,6.38,6.38v4.07a9.07,9.07,0,0,1-17.32,3.76.8.8,0,0,0-1.46.66,10.68,10.68,0,0,0,5.13,5.2v.22a3.32,3.32,0,0,1-3.33,3.32,8.22,8.22,0,0,0-8.23,8.23V48a.8.8,0,0,0,.8.8.79.79,0,0,0,.79-.8v-4.7a6.64,6.64,0,0,1,6.64-6.64,3.1,3.1,0,0,0,.43,0,19.44,19.44,0,0,0,18.23,4.11.79.79,0,0,0,.56-1A.8.8,0,0,0,35,39.24Z"/></svg>