<svg id="Слой_1" data-name="Слой 1" xmlns="http://www.w3.org/2000/svg" viewBox="0 0 138.04 82.77"><defs><style>.cls-1{fill:#83c497;}.cls-2{fill:#fff;}</style></defs><path class="cls-1" d="M13.85,74.46a1,1,0,0,1-.84-.38,1.08,1.08,0,0,1-.22-.91L19.4,42.26a1.49,1.49,0,0,1,.55-.91,1.51,1.51,0,0,1,1-.38H35.85a11.23,11.23,0,0,1,4.88,1,8.76,8.76,0,0,1,3.21,2.46,7.93,7.93,0,0,1,1.58,3.37,8.93,8.93,0,0,1,0,3.64,9.46,9.46,0,0,1-.81,2.41,11,11,0,0,1-1.11,1.77,6.63,6.63,0,0,1-1.14,1.2l-.91.69a5.54,5.54,0,0,1,2,3,9.25,9.25,0,0,1-.12,4.09,21.34,21.34,0,0,1-1.17,3.76,9.2,9.2,0,0,1-2.15,3.16,10.08,10.08,0,0,1-3.66,2.17,16.75,16.75,0,0,1-5.69.82ZM22.94,67h7.89a3.91,3.91,0,0,0,2.49-.83,3.46,3.46,0,0,0,1.29-2.09A2.27,2.27,0,0,0,34.2,62a2.62,2.62,0,0,0-2.13-.83H24.18ZM36.67,51.11a2.21,2.21,0,0,0-.31-2,2.47,2.47,0,0,0-2-.75H26.91l-1.15,5.46h7.42a3.62,3.62,0,0,0,2.34-.74A3.33,3.33,0,0,0,36.67,51.11Z" transform="translate(-1 -0.78)"/><path class="cls-1" d="M91.54,49.1a9.54,9.54,0,0,1,2.46.29,7.76,7.76,0,0,1,1.85.72,5,5,0,0,1,1.24.93,4.79,4.79,0,0,1,.72.93L100,41.78a1.54,1.54,0,0,1,.55-.91,1.51,1.51,0,0,1,1-.38h6a1,1,0,0,1,.84.38,1.11,1.11,0,0,1,.21.91l-6.7,31.39a1.49,1.49,0,0,1-.55.91,1.51,1.51,0,0,1-1,.38H94.6a1,1,0,0,1-.83-.38,1.08,1.08,0,0,1-.22-.91l.24-1.1-.91,1a5.94,5.94,0,0,1-1.2.93,6.11,6.11,0,0,1-1.81.69,12.46,12.46,0,0,1-2.87.27,9.8,9.8,0,0,1-3.59-.7,8.4,8.4,0,0,1-3.09-2.08,8.62,8.62,0,0,1-2-3.49,10.68,10.68,0,0,1-.17-4.93c0-.22.08-.51.15-.86s.13-.71.21-1.08.16-.71.24-1,.15-.63.22-.88q1.42-5.65,4.45-8.21A12.08,12.08,0,0,1,91.54,49.1ZM87.43,60.68A10.39,10.39,0,0,0,87.07,62c-.08.41-.15.86-.22,1.34a7.12,7.12,0,0,0,0,1.6,3.08,3.08,0,0,0,.48,1.32,2.7,2.7,0,0,0,1.1.91,4.36,4.36,0,0,0,1.82.33A4.87,4.87,0,0,0,93.6,66.3a6.06,6.06,0,0,0,1.05-1.22,6.12,6.12,0,0,0,.67-1.39A9.6,9.6,0,0,0,95.8,62,12.51,12.51,0,0,0,96,60.34a4.86,4.86,0,0,0-.1-1.38,3.25,3.25,0,0,0-.52-1.22,2.82,2.82,0,0,0-1.08-.89,4.08,4.08,0,0,0-1.75-.33,4.54,4.54,0,0,0-3.44,1.24A7.26,7.26,0,0,0,87.43,60.68Z" transform="translate(-1 -0.78)"/><path class="cls-1" d="M118.86,82.4a4.36,4.36,0,0,1-.65.77,1.4,1.4,0,0,1-1,.38h-6.79a.9.9,0,0,1-.84-.48.94.94,0,0,1,.07-1l5.65-8.81-4.93-22.2a1,1,0,0,1,.36-1,1.58,1.58,0,0,1,1.08-.45h6.07a.91.91,0,0,1,.82.38,2.84,2.84,0,0,1,.33.77l2.68,12.44,7.89-12.44a4,4,0,0,1,.65-.77,1.4,1.4,0,0,1,1-.38h6.84a.9.9,0,0,1,.84.48.94.94,0,0,1-.07,1Z" transform="translate(-1 -0.78)"/><path class="cls-1" d="M28.3,28.15a.94.94,0,0,1,.81.38,1.13,1.13,0,0,1,.19.91l-1.1,5.07a1.54,1.54,0,0,1-.55.91,1.51,1.51,0,0,1-1,.38H4a1,1,0,0,1-.83-.38,1.08,1.08,0,0,1-.22-.91L9.54,3.6a1.59,1.59,0,0,1,.55-.91,1.53,1.53,0,0,1,1-.38h22.3a1,1,0,0,1,.84.38,1.11,1.11,0,0,1,.21.91l-1.1,5.07a1.47,1.47,0,0,1-.57.91,1.59,1.59,0,0,1-1,.39H17l-1.1,5.16H29.59a1,1,0,0,1,.84.39,1.1,1.1,0,0,1,.21.91l-1.1,5.07a1.53,1.53,0,0,1-.57.91,1.63,1.63,0,0,1-1,.38H14.28l-1.1,5.36Z" transform="translate(-1 -0.78)"/><path class="cls-1" d="M43.08,21.69a14.33,14.33,0,0,0-.43,1.67c-.13.64-.22,1.2-.29,1.68a3.27,3.27,0,0,0,.7,2.77,3.6,3.6,0,0,0,2.84,1.05,5.81,5.81,0,0,0,2.51-.45,5.22,5.22,0,0,0,1.66-1.27,5.42,5.42,0,0,1,.69-.67,1.37,1.37,0,0,1,.88-.29h6.27a1.08,1.08,0,0,1,.86.39.85.85,0,0,1,.15.91A24,24,0,0,1,58,29.73a9.58,9.58,0,0,1-2.23,2.94A13.41,13.41,0,0,1,51.6,35.2a18.14,18.14,0,0,1-6.8,1.08,12.86,12.86,0,0,1-4.49-.81,11.54,11.54,0,0,1-3.81-2.28,9,9,0,0,1-2.39-3.54A8.61,8.61,0,0,1,33.75,25c.1-.48.22-1.12.38-1.92s.31-1.43.43-1.91a13.73,13.73,0,0,1,5-7.92q3.7-2.85,9.83-2.85A13,13,0,0,1,55,11.52a11,11,0,0,1,3.51,2.54A8.36,8.36,0,0,1,60.3,17a5.82,5.82,0,0,1,.39,2.25,1.54,1.54,0,0,1-.58.91,1.6,1.6,0,0,1-1,.38H52.84a1,1,0,0,1-.77-.29,2.29,2.29,0,0,1-.38-.67,2.94,2.94,0,0,0-1.12-1.27,4.63,4.63,0,0,0-2.32-.45A5.21,5.21,0,0,0,45,18.91,5.39,5.39,0,0,0,43.08,21.69Z" transform="translate(-1 -0.78)"/><path class="cls-1" d="M81.54,11.44a16.48,16.48,0,0,0-3.5-.62,6.3,6.3,0,0,0-2.29.08.17.17,0,0,1-.21,0,6.86,6.86,0,0,0-2.4.45,18.27,18.27,0,0,0-4.71,2.25A16,16,0,0,0,63.36,20a17.23,17.23,0,0,0-1,3.31,26.84,26.84,0,0,0-.48,3,39.55,39.55,0,0,0,.06,7c.11,1.1.27,2.39.33,2.85s.21,1.32.29,1.88a12.85,12.85,0,0,0,.38,1.89c.05.18.19.77.31,1.3s.26,1.15.33,1.39.28,1,.45,1.7.41,1.64.54,2.09c.31,1.08,1.08,5.25,1.3,7a36.19,36.19,0,0,1,.3,4.15c0,.46,0,1.55-.12,2.45a8.46,8.46,0,0,1-.78,3A5.53,5.53,0,0,1,63.88,65a7.88,7.88,0,0,1-5.78,2.4,8.53,8.53,0,0,1-6-2.62c-.7-.71-.9-.67-.48.09a9.49,9.49,0,0,0,8.58,4.46l.79,0-.6.15a10.63,10.63,0,0,1-6.72-1.14,10.31,10.31,0,0,1-5.26-8c-.52-4.18,1.36-7.91,5.36-10.74a44.13,44.13,0,0,1,6.95-3.75,20.68,20.68,0,0,0,2-1,33.7,33.7,0,0,0-4.95,1.59c-2.55,1-5.63,2.64-6.14,3.24-.14.14-.29.25-.35.22s-.19,0-.3.15-.66.67-1.23,1.22A12.14,12.14,0,0,0,46.4,61.66a14.43,14.43,0,0,0,2.09,5.41,16.61,16.61,0,0,0,2.94,3.06,15.27,15.27,0,0,0,4,2l1.49.33A12.68,12.68,0,0,0,63.14,72c1.6-.5,1.57-.33-.06.3a14.43,14.43,0,0,1-8.12.54,23.56,23.56,0,0,1-5.27-2.54,11.13,11.13,0,0,1-2.07-2c-1.1-1.36-1.18-1-.1.49a15.07,15.07,0,0,0,10.4,5.92,19.43,19.43,0,0,0,2.49,0,1,1,0,0,1,.45,0,12.51,12.51,0,0,0,2.07-.34c2.48-.57,5.93-2.44,7.17-3.92a2,2,0,0,1,.5-.46c.46-.22,1.75-2.16,2.66-4A12.72,12.72,0,0,0,74.2,64a7.86,7.86,0,0,1,.27-1.3,27.58,27.58,0,0,0,.72-7.38A67.09,67.09,0,0,0,74.28,47c-.13-.58-.24-1.15-.26-1.25-.18-1-.75-3.27-1.27-5.05-.45-1.59-1.12-4.47-1.31-5.68-.1-.57-.19-1.08-.21-1.14s-.4-2.8-.4-3.14c0-.14,0-.75-.06-1.33a16.17,16.17,0,0,1,0-3.41.57.57,0,0,0,0-.39,11,11,0,0,1,.85-3.46,8.6,8.6,0,0,1,2.12-2.58,12.68,12.68,0,0,1,2.78-1.34,10.06,10.06,0,0,1,3.59,0,11.27,11.27,0,0,1,4,2.25,9.8,9.8,0,0,1,2.12,3.95,5.82,5.82,0,0,1,.18,2.74.23.23,0,0,0,0,.28c.47.23.69-2.38.37-4.23a9.15,9.15,0,0,0-3.57-5.68,16.48,16.48,0,0,0-3.86-1.85L79,15.62h.52c1.63,0,4.53,1.44,6.13,3a10.65,10.65,0,0,1,2.82,9.5,11.43,11.43,0,0,1-3.7,6.29,15.82,15.82,0,0,1-2.21,1.65.22.22,0,0,0-.2.12,20.13,20.13,0,0,1-3.21,1.87c-.26.11-.71.3-1,.44s-2.43,1.17-3.94,1.86c-.34.16-.34.16,0,.1a56.53,56.53,0,0,0,7.24-2.71l.71-.34c.19-.07,1.17-.61,1.81-1A17.74,17.74,0,0,0,87.17,34a9.67,9.67,0,0,0,1.94-2.69,9.19,9.19,0,0,0,1.22-3.14A12.66,12.66,0,0,0,89.48,20c-.19-.38-.35-.75-.38-.82a10,10,0,0,0-.61-1,13.86,13.86,0,0,0-3.33-3.34A13.19,13.19,0,0,0,81.08,13a2.83,2.83,0,0,1-.91-.19,5.68,5.68,0,0,0-1.55-.22,6.78,6.78,0,0,1-1,0,22.27,22.27,0,0,0-3.67.58A13.7,13.7,0,0,0,70,15c-.94.68-.75.36.29-.48a17.9,17.9,0,0,1,4.47-2.33c.37-.09.87-.24,1.11-.31a13.85,13.85,0,0,1,4.86-.17c.77.14,1.89.11,1.47,0Z" transform="translate(-1 -0.78)"/><path class="cls-2" d="M11.74,72.54a1,1,0,0,1-.84-.38,1.07,1.07,0,0,1-.21-.91l6.6-30.9a1.51,1.51,0,0,1,.55-.91,1.47,1.47,0,0,1,1-.39H33.75a11.26,11.26,0,0,1,4.88,1,8.77,8.77,0,0,1,3.2,2.47,7.76,7.76,0,0,1,1.58,3.37,8.54,8.54,0,0,1,0,3.63,9.54,9.54,0,0,1-.81,2.42,11,11,0,0,1-1.1,1.77,7,7,0,0,1-1.15,1.2c-.38.3-.68.53-.91.69a5.52,5.52,0,0,1,2,3,9.25,9.25,0,0,1-.12,4.09,23.15,23.15,0,0,1-1.17,3.76A9.33,9.33,0,0,1,38,69.55a10.1,10.1,0,0,1-3.66,2.18,17,17,0,0,1-5.69.81Zm9.09-7.41h7.9a3.86,3.86,0,0,0,2.48-.84,3.45,3.45,0,0,0,1.3-2.08,2.3,2.3,0,0,0-.41-2.08A2.6,2.6,0,0,0,30,59.29H22.08ZM34.56,49.2a2.24,2.24,0,0,0-.31-2,2.48,2.48,0,0,0-2-.74H24.8l-1.15,5.45h7.42a3.53,3.53,0,0,0,2.34-.74A3.22,3.22,0,0,0,34.56,49.2Z" transform="translate(-1 -0.78)"/><path class="cls-2" d="M89.44,47.19a9.68,9.68,0,0,1,2.46.28,8.61,8.61,0,0,1,1.84.72,5.3,5.3,0,0,1,1.25.94,4.79,4.79,0,0,1,.71.93l2.2-10.19a1.56,1.56,0,0,1,.55-.91,1.49,1.49,0,0,1,1-.38h6a1,1,0,0,1,.84.38,1.07,1.07,0,0,1,.22.91l-6.7,31.38a1.56,1.56,0,0,1-.55.91,1.48,1.48,0,0,1-1,.38H92.5a1,1,0,0,1-.84-.38,1,1,0,0,1-.21-.91l.23-1.1c-.28.32-.59.65-.9,1a5.63,5.63,0,0,1-1.2.94,6.93,6.93,0,0,1-1.82.69,13.06,13.06,0,0,1-2.87.26,9.82,9.82,0,0,1-3.59-.69,8.4,8.4,0,0,1-3.08-2.08,8.69,8.69,0,0,1-2-3.49,10.56,10.56,0,0,1-.17-4.93c0-.23.08-.51.14-.86s.14-.71.22-1.08.16-.72.24-1L76.9,58q1.44-5.64,4.45-8.2A12.06,12.06,0,0,1,89.44,47.19ZM85.32,58.77A10,10,0,0,0,85,60.11c-.08.41-.15.86-.21,1.34a6.11,6.11,0,0,0,0,1.6,2.92,2.92,0,0,0,.48,1.31,2.5,2.5,0,0,0,1.1.91,4.15,4.15,0,0,0,1.81.34A4.86,4.86,0,0,0,90,65.27a4.94,4.94,0,0,0,1.46-.88,6.07,6.07,0,0,0,1.06-1.22,6.57,6.57,0,0,0,.67-1.39,9.28,9.28,0,0,0,.47-1.67,12.51,12.51,0,0,0,.24-1.68A5.34,5.34,0,0,0,93.84,57a3.41,3.41,0,0,0-.53-1.22,2.66,2.66,0,0,0-1.08-.88,4,4,0,0,0-1.74-.34A4.57,4.57,0,0,0,87,55.85,7.37,7.37,0,0,0,85.32,58.77Z" transform="translate(-1 -0.78)"/><path class="cls-2" d="M116.75,80.49a3.92,3.92,0,0,1-.64.76,1.36,1.36,0,0,1-1,.38h-6.8a.88.88,0,0,1-.83-.47.91.91,0,0,1,.07-1l5.64-8.8-4.92-22.2a1,1,0,0,1,.35-1,1.61,1.61,0,0,1,1.08-.45h6.08a.87.87,0,0,1,.81.38,2.82,2.82,0,0,1,.34.76l2.67,12.44,7.9-12.44a3.92,3.92,0,0,1,.64-.76,1.38,1.38,0,0,1,1-.38H136a.88.88,0,0,1,.83.47.91.91,0,0,1-.07,1Z" transform="translate(-1 -0.78)"/><path class="cls-2" d="M26.38,26.62a1,1,0,0,1,.82.38,1.13,1.13,0,0,1,.19.91L26.29,33a1.59,1.59,0,0,1-.55.91,1.53,1.53,0,0,1-1,.38H2.08A1,1,0,0,1,1,33L7.63,2.07a1.54,1.54,0,0,1,.55-.91,1.51,1.51,0,0,1,1-.38H31.45a1,1,0,0,1,.84.38,1.08,1.08,0,0,1,.22.91l-1.1,5.07a1.52,1.52,0,0,1-.58.91,1.56,1.56,0,0,1-1,.39H15.09L14,13.6H27.67a1,1,0,0,1,.84.39,1.05,1.05,0,0,1,.22.9L27.63,20a1.49,1.49,0,0,1-.58.9,1.56,1.56,0,0,1-1,.39H12.36l-1.1,5.36Z" transform="translate(-1 -0.78)"/><path class="cls-2" d="M41.17,20.16a12.57,12.57,0,0,0-.43,1.67c-.13.64-.23,1.2-.29,1.68a3.3,3.3,0,0,0,.69,2.77,3.61,3.61,0,0,0,2.85,1,5.84,5.84,0,0,0,2.51-.45,5.29,5.29,0,0,0,1.65-1.27,5.48,5.48,0,0,1,.7-.67,1.35,1.35,0,0,1,.88-.29H56a1.08,1.08,0,0,1,.86.39A.85.85,0,0,1,57,26a20.64,20.64,0,0,1-.91,2.24,9.56,9.56,0,0,1-2.22,2.95,13.66,13.66,0,0,1-4.19,2.53,18.08,18.08,0,0,1-6.79,1.08,13,13,0,0,1-4.5-.81,11.5,11.5,0,0,1-3.8-2.28,8.93,8.93,0,0,1-2.39-3.54,8.61,8.61,0,0,1-.36-4.61c.09-.48.22-1.12.38-1.92s.3-1.43.43-1.91a13.76,13.76,0,0,1,5-7.92q3.7-2.85,9.83-2.85A13,13,0,0,1,53.1,10a10.91,10.91,0,0,1,3.52,2.54,8.36,8.36,0,0,1,1.77,2.94,5.58,5.58,0,0,1,.38,2.25,1.48,1.48,0,0,1-.57.91,1.63,1.63,0,0,1-1,.38H50.93a1,1,0,0,1-.77-.29,2.09,2.09,0,0,1-.38-.67,3,3,0,0,0-1.13-1.27,4.58,4.58,0,0,0-2.32-.45,5.21,5.21,0,0,0-3.27,1.05A5.39,5.39,0,0,0,41.17,20.16Z" transform="translate(-1 -0.78)"/><path class="cls-2" d="M80.39,11.06a16.48,16.48,0,0,0-3.5-.62,6.51,6.51,0,0,0-2.29.07.16.16,0,0,1-.21,0A6.86,6.86,0,0,0,72,11a18.27,18.27,0,0,0-4.71,2.25,16,16,0,0,0-5.07,6.31,18.48,18.48,0,0,0-1,3.31,27.48,27.48,0,0,0-.47,3,38.79,38.79,0,0,0,0,7c.11,1.1.27,2.39.33,2.85s.21,1.32.3,1.88a11.91,11.91,0,0,0,.37,1.89c.05.18.19.77.31,1.29s.26,1.15.33,1.4.28,1,.45,1.7.42,1.64.54,2.08c.31,1.09,1.08,5.25,1.3,7A36.6,36.6,0,0,1,65,57c0,.45,0,1.55-.12,2.45a8.46,8.46,0,0,1-.78,3,5.58,5.58,0,0,1-1.38,2.15A7.87,7.87,0,0,1,57,67.05a8.57,8.57,0,0,1-6-2.62c-.7-.71-.89-.67-.48.09A9.51,9.51,0,0,0,59,69l.79,0-.6.15A10.64,10.64,0,0,1,52.49,68a10.31,10.31,0,0,1-5.26-8c-.51-4.19,1.36-7.92,5.36-10.74a43.75,43.75,0,0,1,6.95-3.75,20.68,20.68,0,0,0,2-1,31.23,31.23,0,0,0-5,1.59c-2.55,1-5.63,2.64-6.14,3.23-.13.14-.29.26-.35.23s-.19,0-.3.14-.66.68-1.23,1.23a12.13,12.13,0,0,0-3.35,10.32,14.5,14.5,0,0,0,2.09,5.41,16.35,16.35,0,0,0,2.95,3.06,15.38,15.38,0,0,0,4,2c.35.07,1,.23,1.49.32A12.55,12.55,0,0,0,62,71.64c1.6-.5,1.57-.33-.06.3a14.31,14.31,0,0,1-8.11.53,22.72,22.72,0,0,1-5.27-2.53,11.13,11.13,0,0,1-2.07-2c-1.11-1.36-1.19-1-.11.49a15,15,0,0,0,10.4,5.91,16.2,16.2,0,0,0,2.49,0,1.2,1.2,0,0,1,.45,0,11.07,11.07,0,0,0,2.07-.33c2.48-.57,5.93-2.44,7.17-3.92a2,2,0,0,1,.5-.46c.46-.22,1.75-2.16,2.66-4a13.12,13.12,0,0,0,.94-2.1,7.66,7.66,0,0,1,.27-1.3,28,28,0,0,0,.73-7.38,66.89,66.89,0,0,0-.92-8.26c-.13-.58-.24-1.16-.26-1.25-.18-1-.75-3.27-1.27-5-.45-1.6-1.11-4.47-1.31-5.68-.1-.57-.19-1.08-.21-1.14s-.39-2.8-.39-3.15c0-.13,0-.74-.07-1.33a16.06,16.06,0,0,1,0-3.4.58.58,0,0,0,0-.39,11,11,0,0,1,.85-3.46,8.6,8.6,0,0,1,2.12-2.58,12.24,12.24,0,0,1,2.78-1.34,9.84,9.84,0,0,1,3.59,0,11.12,11.12,0,0,1,4,2.25,9.8,9.8,0,0,1,2.12,4,5.82,5.82,0,0,1,.18,2.74.23.23,0,0,0,0,.28c.47.23.69-2.38.37-4.24a9.15,9.15,0,0,0-3.57-5.67,16.48,16.48,0,0,0-3.86-1.85l-.46-.13.52,0c1.63,0,4.53,1.44,6.13,3a10.67,10.67,0,0,1,2.83,9.5A11.5,11.5,0,0,1,83.65,34a15.25,15.25,0,0,1-2.2,1.64.22.22,0,0,0-.2.13A19.59,19.59,0,0,1,78,37.67c-.26.11-.71.31-1,.44S74.63,39.29,73.12,40c-.34.16-.34.16,0,.1a56,56,0,0,0,7.24-2.71l.71-.34c.19-.08,1.17-.61,1.81-1A17.43,17.43,0,0,0,86,33.59a9.67,9.67,0,0,0,2-2.68,9.23,9.23,0,0,0,1.21-3.14,12.69,12.69,0,0,0-.85-8.12c-.19-.37-.35-.75-.37-.81s-.3-.52-.62-1A14,14,0,0,0,84,14.47a13.09,13.09,0,0,0-4.09-1.89,2.83,2.83,0,0,1-.91-.19,5.63,5.63,0,0,0-1.55-.22,6.78,6.78,0,0,1-1,0,21.36,21.36,0,0,0-3.67.58,13.82,13.82,0,0,0-4,1.91c-.94.67-.75.35.29-.48a17.9,17.9,0,0,1,4.47-2.33c.38-.09.87-.25,1.11-.32a13.87,13.87,0,0,1,4.86-.16c.77.14,1.89.11,1.47,0Z" transform="translate(-1 -0.78)"/></svg>