<?xml version="1.0" encoding="utf-8"?>
<!-- Generator: Adobe Illustrator 25.2.1, SVG Export Plug-In . SVG Version: 6.00 Build 0)  -->
<svg version="1.1" id="Слой_1" xmlns="http://www.w3.org/2000/svg" xmlns:xlink="http://www.w3.org/1999/xlink" x="0px" y="0px"
	 viewBox="0 0 50 50" style="enable-background:new 0 0 50 50;" xml:space="preserve">
<style type="text/css">
	.st0{fill:#679878;}
</style>
<path class="st0" d="M49.2,14.9C47,13.6,44.5,13,42,13.1c-0.1-0.6-0.2-1.2-0.3-1.7c-0.1-0.4-0.4-0.6-0.7-0.7c-3-0.7-6.2-0.4-8.9,0.8
	c-0.3-1.3-0.8-2.6-1.5-3.7c-1.2-2.1-2.9-3.9-5-5.2l0,0c-0.3-0.2-0.7-0.2-1,0c-2.1,1.3-3.8,3.1-5,5.2c-0.7,1.2-1.2,2.4-1.5,3.7
	c-2.8-1.3-5.9-1.6-8.9-0.8c-0.4,0.1-0.6,0.4-0.7,0.7c-0.1,0.6-0.2,1.1-0.3,1.7C5.5,13,3,13.6,0.8,14.9c-0.3,0.2-0.5,0.5-0.5,0.9
	c0.1,2.3,0.8,4.6,2,6.5c1.2,2,3,3.7,5.1,4.9c1.6,0.9,3.3,1.4,5.1,1.6c-2.8,2.4-4.5,5.6-4.8,9.1c0,0.4,0.2,0.8,0.5,0.9
	c1.5,0.7,3.1,1.1,4.7,1.2l-0.1,0c-2,0.9-2.9,3.3-2,5.3c0.4,1,1.2,1.8,2.2,2.3c0.5,0.2,1,0.3,1.6,0.3c0.5,0,1.1-0.1,1.6-0.3l1.1-0.5
	c0.5-0.2,0.7-0.8,0.5-1.3c-0.2-0.5-0.8-0.7-1.3-0.5l-1.1,0.5c-0.5,0.2-1.1,0.2-1.7,0c-0.5-0.2-1-0.7-1.2-1.2c-0.4-1.1,0-2.3,1.1-2.8
	l5.8-2.8c1.4-0.6,2.2-2,2.3-3.5h0.7c1,0,1.9-0.4,2.5-1.1c0.6,0.7,1.5,1.1,2.5,1.1h0.7c0,1.5,0.9,2.9,2.3,3.5l5.8,2.8
	c1.1,0.5,1.6,1.8,1.1,2.9c-0.5,1.1-1.7,1.7-2.9,1.3l-7.4-2.8h2.7c0.5,0,1-0.4,1-1c0-0.5-0.4-1-1-1h-3.2c-0.1,0-0.3,0-0.4,0.1
	l-3.7,1.5c-0.5,0.2-0.7,0.8-0.5,1.3c0.2,0.4,0.5,0.6,0.9,0.6c0.1,0,0.3,0,0.4-0.1l1.1-0.4l9.5,3.5c0.5,0.2,1,0.3,1.5,0.3
	c1.7,0,3.2-1,3.9-2.6c0.8-2.1-0.1-4.4-2.1-5.4l0,0c1.6-0.1,3.2-0.5,4.7-1.2c0.4-0.2,0.6-0.5,0.5-0.9c-0.3-3.5-2-6.7-4.8-9.1
	c1.8-0.2,3.5-0.7,5.1-1.6c2.1-1.1,3.9-2.8,5.1-4.9c1.2-2,1.9-4.2,2-6.5C49.7,15.4,49.6,15.1,49.2,14.9z M39.9,12.4
	c0.7,3.8-0.4,7.7-3.2,10.5c-0.7,0.7-1.5,1.3-2.4,1.8c-0.9-1.3-2.3-2.1-3.9-2.4c1.3-2.2,2-4.8,2-7.4c0-0.5,0-1-0.1-1.5
	C34.7,12.3,37.3,11.9,39.9,12.4z M27.6,19.5c0,1.4-1.2,2.6-2.6,2.6c-1.4,0-2.6-1.2-2.6-2.6v-0.6c0-1.4,1.2-2.6,2.6-2.6
	c1.4,0,2.6,1.2,2.6,2.6V19.5z M25,4.5c3.5,2.3,5.5,6.2,5.5,10.4c0,1.7-0.3,3.4-1,4.9c0-0.1,0-0.2,0-0.3v-0.6c0-2.5-2-4.6-4.6-4.6
	c-2.5,0-4.6,2-4.6,4.6v0.6c0,0.1,0,0.2,0,0.2c-0.6-1.5-0.9-3.1-0.9-4.8C19.5,10.7,21.5,6.9,25,4.5z M10.1,12.4
	c2.6-0.5,5.2-0.1,7.6,1.1c-0.1,0.5-0.1,1-0.1,1.5c0,2.6,0.7,5.2,2,7.4c-1.6,0.2-3,1.1-3.9,2.4c-0.9-0.5-1.7-1.1-2.4-1.8
	C10.5,20.1,9.3,16.2,10.1,12.4z M2.2,16.3C4,15.4,6,14.9,8,15c0,1.1,0.2,2.1,0.5,3.2c0.6,2.3,1.8,4.4,3.5,6.1
	c0.9,0.9,1.9,1.6,2.9,2.2c0,0.1-0.1,0.3-0.1,0.4c-2.2,0.2-4.5-0.3-6.5-1.4C4.9,23.6,2.6,20.2,2.2,16.3z M19.3,36.7
	c-3.1,1.6-6.7,1.8-9.7,0.6c0.4-3.1,2.3-5.9,5-7.8v1.6c0,2.4,1.9,4.3,4.3,4.3h0.8C19.8,35.9,19.6,36.4,19.3,36.7z M26,32.2
	c0-0.1,0-0.1,0-0.2c0.1,0.1,0.3,0.1,0.5,0.1h4.2c0.5,0,1-0.4,1-1v-3.1c0-0.5-0.4-1-1-1s-1,0.4-1,1v2.1H27l-0.2-0.3
	c-0.4-0.6-1-0.8-1.7-0.6c0,0-0.1,0-0.1,0c0,0-0.1,0-0.1,0c-0.6-0.2-1.3,0.1-1.7,0.6L23,30.2h-2.8v-2.1c0-0.5-0.4-1-1-1s-1,0.4-1,1
	v3.1c0,0.5,0.4,1,1,1h4.2c0.2,0,0.3,0,0.5-0.1c0,0.1,0,0.1,0,0.2c-0.1,0.8-0.8,1.4-1.6,1.4H19c-1.3,0-2.4-1.1-2.4-2.4V28
	c0-2.1,1.7-3.8,3.8-3.8h9.2c2.1,0,3.8,1.7,3.8,3.8v3.1c0,1.3-1.1,2.4-2.4,2.4h-3.5C26.7,33.5,26.1,32.9,26,32.2z M40.4,37.3
	c-3,1.2-6.6,1-9.7-0.6c-0.3-0.3-0.5-0.8-0.5-1.2H31c2.4,0,4.3-1.9,4.3-4.3v-1.6C38.1,31.4,39.9,34.2,40.4,37.3z M41.7,25.5
	c-2,1.1-4.2,1.6-6.5,1.4c0-0.1-0.1-0.3-0.1-0.4c1.1-0.6,2.1-1.4,2.9-2.2c1.7-1.7,2.9-3.8,3.5-6.1c0.3-1,0.4-2.1,0.5-3.2
	c2-0.1,3.9,0.4,5.7,1.3C47.4,20.2,45.1,23.6,41.7,25.5z"/>
</svg>
