<svg id="Слой_1" data-name="Слой 1" xmlns="http://www.w3.org/2000/svg" viewBox="0 0 50 50"><defs><style>.cls-1{fill:#679878;}</style></defs><path class="cls-1" d="M24.92.84a24.1,24.1,0,1,0,17,7.06A24.11,24.11,0,0,0,24.92.84Zm22.51,23.3H23.36V2.45c.52,0,1-.06,1.56-.06A22.55,22.55,0,0,1,47.43,24.14Zm-45,.78A22.55,22.55,0,0,1,21.81,2.61V47.23A22.55,22.55,0,0,1,2.39,24.92ZM24.92,47.45c-.53,0-1,0-1.56-.06V25.69H47.43A22.57,22.57,0,0,1,24.92,47.45Z"/><path class="cls-1" d="M19.48,21.81a3,3,0,0,0-.25-1.21,3.1,3.1,0,0,0-.7-1,3,3,0,0,0-1-.67,3.14,3.14,0,0,0-1.22-.21,3.12,3.12,0,0,0-2.21-2.23,3.07,3.07,0,0,0-1.62,0,3,3,0,0,0-1.4.83,2.34,2.34,0,0,0-1.43-.09A2.31,2.31,0,0,0,8.38,18a3.11,3.11,0,0,0-3.64,2.68A3.07,3.07,0,0,0,5,22.29a2.28,2.28,0,0,0-.27,1.08A2.32,2.32,0,0,0,7.05,25.7L9.1,29.29a2.19,2.19,0,0,1,.28,1.07,3.1,3.1,0,0,0,.91,2.19,3.07,3.07,0,0,0,2.2.91,3.11,3.11,0,0,0,3.11-3.1,4.76,4.76,0,0,1,.18-1.31L17,24.86a3.13,3.13,0,0,0,2.5-3.05Zm-5.19,6.81A6,6,0,0,0,14,30.36a1.56,1.56,0,0,1-3.11,0,3.69,3.69,0,0,0-.48-1.84L8.53,25.16a2.38,2.38,0,0,0,.59-.74l2.77,3.33a.79.79,0,0,0,.27.2.73.73,0,0,0,.33.08h.09a.72.72,0,0,0,.35-.14.67.67,0,0,0,.25-.28l1.58-3.15a3.64,3.64,0,0,0,.63.3Zm-3.38-4.48a3.66,3.66,0,0,0,.57-.05,2.36,2.36,0,0,0,1.33.78l-.49,1Zm5.46-.78a1.57,1.57,0,0,1-.64-.14,1.45,1.45,0,0,1-.52-.4.78.78,0,0,0-.3-.21.68.68,0,0,0-.37-.05.73.73,0,0,0-.35.12.84.84,0,0,0-.25.28.77.77,0,0,1-.31.28.8.8,0,0,1-.41.09.76.76,0,0,1-.39-.13.79.79,0,0,1-.28-.32.81.81,0,0,0-.42-.42.63.63,0,0,0-.3-.05.8.8,0,0,0-.3.06,1.55,1.55,0,0,1-.85.09,1.63,1.63,0,0,1-.78-.38.75.75,0,0,0-.52-.2.83.83,0,0,0-.52.19,1.56,1.56,0,0,1-.52.32.82.82,0,0,0-.4.36.85.85,0,0,0-.11.52.82.82,0,0,1-.13.4L7,24.14a.79.79,0,0,1-.77-.77.83.83,0,0,1,.21-.52.76.76,0,0,0,.19-.46.79.79,0,0,0-.13-.49A1.49,1.49,0,0,1,6.28,21a1.52,1.52,0,0,1,.34-.91,1.68,1.68,0,0,1,.83-.53,1.54,1.54,0,0,1,1,.08.8.8,0,0,0,.3.06A.77.77,0,0,0,9,19.6a.81.81,0,0,0,.42-.42.8.8,0,0,1,.23-.29.71.71,0,0,1,.33-.15.67.67,0,0,1,.37,0,.76.76,0,0,1,.32.17.87.87,0,0,0,.31.18.69.69,0,0,0,.35,0,.79.79,0,0,0,.33-.13.75.75,0,0,0,.23-.27,1.6,1.6,0,0,1,.74-.67,1.54,1.54,0,0,1,2.17,1.4s0,.1,0,.12a.67.67,0,0,0,.07.37.7.7,0,0,0,.24.3.64.64,0,0,0,.35.14.82.82,0,0,0,.38,0,1.3,1.3,0,0,1,.52-.1,1.55,1.55,0,1,1,0,3.1Z"/><path class="cls-1" d="M35.79,27.25a4.48,4.48,0,0,0-2.33.68,4.34,4.34,0,0,0-2.33-.68c-3,0-5.44,3.14-5.44,7a6.57,6.57,0,0,0,.87,3.6,6.46,6.46,0,0,0,2.69,2.54.8.8,0,0,0,.61,0,1,1,0,0,0,.27-.17A.9.9,0,0,0,30.3,40l.83-2.09L32,40a.76.76,0,0,0,.18.26.78.78,0,0,0,.26.17.83.83,0,0,0,.62,0,5.85,5.85,0,0,0,2.68-2.57L36.63,40a1.14,1.14,0,0,0,.18.25.83.83,0,0,0,.26.17.81.81,0,0,0,.31.05,1,1,0,0,0,.3-.07,6.54,6.54,0,0,0,2.69-2.55,6.47,6.47,0,0,0,.86-3.6C41.23,30.39,38.79,27.25,35.79,27.25Zm-6.6,11.3a5.12,5.12,0,0,1-1.5-1.92,5,5,0,0,1-.44-2.39c0-2.63,1.34-4.82,3.11-5.33v1.45h-.78v1.55h.78v.78h-.78v1.55h.78v1.4Zm3.88,0-1.16-2.91v-1.4h.78V32.69h-.78v-.78h.78V30.36h-.78V28.91c1.77.51,3.11,2.7,3.11,5.33a5.17,5.17,0,0,1-.45,2.39,5.12,5.12,0,0,1-1.5,1.92Zm4.64,0-1.27-3a7.74,7.74,0,0,0,.13-1.36A8,8,0,0,0,34.74,29a2.9,2.9,0,0,1,1-.22c2.15,0,3.89,2.44,3.89,5.44a5.19,5.19,0,0,1-.45,2.4,5.07,5.07,0,0,1-1.51,1.92Z"/><path class="cls-1" d="M26.24,23.2l1.4-1.39H35a.83.83,0,0,0,.43-.13.82.82,0,0,0,.29-.35.77.77,0,0,0,0-.45.78.78,0,0,0-.21-.4l-.13-.13a8.27,8.27,0,0,0-4-2.22l1-1h7.31A.8.8,0,0,0,40,17a.82.82,0,0,0,.29-.35.77.77,0,0,0,0-.45.78.78,0,0,0-.21-.4L40,15.69A8.27,8.27,0,0,0,36,13.47l2.3-2.31-1.09-1.1-2.4,2.39a8.18,8.18,0,0,0-2.27-4.26l-.13-.14a.86.86,0,0,0-.4-.21.74.74,0,0,0-.44,0,.65.65,0,0,0-.35.28.75.75,0,0,0-.13.43v7.58l-.94.94a8.18,8.18,0,0,0-2.27-4.27l-.13-.13a.79.79,0,0,0-.4-.22.78.78,0,0,0-.45.05.72.72,0,0,0-.34.28.76.76,0,0,0-.14.43v7.58L25.14,22.1Zm6.42-2.94H29.19l.75-.75A6.67,6.67,0,0,1,32.66,20.26Zm4.66-4.66H33.85l.75-.76A6.64,6.64,0,0,1,37.32,15.6Zm-4.7-4.7a6.78,6.78,0,0,1,.77,3l-.77.77ZM28,15.56a6.64,6.64,0,0,1,.76,3l-.76.77Z"/></svg>